{"title":"Saadi Love Story 2013 720p HDRip x264 [5.1 Ch] ESubs Punjabi By","uid":8167957,"size":804541548,"categoryP":"video","categoryS":"hd___movies","magnet":"?xt=urn:btih:63eb80ca859b34c5a2b0dc975f50ac065ff1818e&amp;dn=Saadi+Love+Story+2013+720p+HDRip+x264+%5B5.1+Ch%5D+ESubs+Punjabi+By+&amp;tr=udp%3A%2F%2Ftracker.openbittorrent.com%3A80&amp;tr=udp%3A%2F%2Fopen.demonii.com%3A1337&amp;tr=udp%3A%2F%2Ftracker.coppersurfer.tk%3A6969&amp;tr=udp%3A%2F%2Fexodus.desync.com%3A6969","seeders":0,"leechers":2,"uploader":"JagatjeetSandhu","files":24,"time":1361366733,"description":"General\nComplete name                            : Saadi Love Story 2013 720p HDRip x264 5.1 Ch Punjabi By JaGatJeetSanDhu.mkv\nFormat                                   : Matroska\nFormat version                           : Version 4 / Version 2\nFile size                                : 751 MiB\nDuration                                 : 1h 44mn\nOverall bit rate                         : 1 002 Kbps\nMovie name                               : Saadi Love Story | 720p | HDRip | JaGatJeetSanDhu\n\nVideo\nID                                       : 1\nFormat                                   : AVC\nFormat/Info                              : Advanced Video Codec\nFormat profile                           : &lt;a class=&quot;__cf_email__&quot; href=&quot;/cdn-cgi/l/email-protection&quot; data-cfemail=&quot;4c04252b240c007f627d&quot;&gt;[email&amp;#160;protected]&lt;/a&gt;&lt;script cf-hash='f9e31' type=&quot;text/javascript&quot;&gt;\n/* &lt;![CDATA[ */!function(){try{var t=&quot;currentScript&quot;in document?document.currentScript:function(){for(var t=document.getElementsByTagName(&quot;script&quot;),e=t.length;e--;)if(t[e].getAttribute(&quot;cf-hash&quot;))return t[e]}();if(t&amp;&amp;t.previousSibling){var e,r,n,i,c=t.previousSibling,a=c.getAttribute(&quot;data-cfemail&quot;);if(a){for(e=&quot;&quot;,r=parseInt(a.substr(0,2),16),n=2;a.length-n;n+=2)i=parseInt(a.substr(n,2),16)^r,e+=String.fromCharCode(i);e=document.createTextNode(e),c.parentNode.replaceChild(e,c)}}}catch(u){}}();/* ]]&gt; */&lt;/script&gt;\nFormat settings, CABAC                   : Yes\nFormat settings, ReFrames                : 4 frames\nCodec ID                                 : V_MPEG4/ISO/AVC\nDuration                                 : 1h 44mn\nBit rate                                 : 616 Kbps\nWidth                                    : 1 280 pixels\nHeight                                   : 544 pixels\nDisplay aspect ratio                     : 2.35:1\nFrame rate mode                          : Constant\nFrame rate                               : 29.970 fps\nColor space                              : YUV\nChroma subsampling                       : 4:2:0\nBit depth                                : 8 bits\nScan type                                : Progressive\nBits/(Pixel*Frame)                       : 0.030\nStream size                              : 448 MiB (60%)\nTitle                                    : JaGatJeetSanDhu\nWriting library                          : x264 core \nLanguage                                 : English\nDefault                                  : Yes\nForced                                   : No\n\nAudio\nID                                       : 2\nFormat                                   : AC-3\nFormat/Info                              : Audio Coding 3\nMode extension                           : CM (complete main)\nFormat settings, Endianness              : Big\nCodec ID                                 : A_AC3\nDuration                                 : 1h 44mn\nBit rate mode                            : Constant\nBit rate                                 : 384 Kbps\nChannel(s)                               : 6 channels\nChannel positions                        : Front: L C R, Side: L R, LFE\nSampling rate                            : 48.0 KHz\nBit depth                                : 16 bits\nCompression mode                         : Lossy\nStream size                              : 288 MiB (38%)\nTitle                                    : JaGatJeetSanDhu\nLanguage                                 : Panjabi\nDefault                                  : Yes\nForced                                   : No\n\nScreens\n &lt;a href=&quot;\nhttp://imageshack.us/a/img209/8528/16242722.png&quot; rel=&quot;nofollow&quot; target=&quot;_NEW&quot;&gt;\nhttp://imageshack.us/a/img209/8528/16242722.png&lt;/a&gt;\n &lt;a href=&quot;\nhttp://imageshack.us/a/img819/8247/18341257.png&quot; rel=&quot;nofollow&quot; target=&quot;_NEW&quot;&gt;\nhttp://imageshack.us/a/img819/8247/18341257.png&lt;/a&gt;\n &lt;a href=&quot;\nhttp://imageshack.us/a/img839/6554/77867198.png&quot; rel=&quot;nofollow&quot; target=&quot;_NEW&quot;&gt;\nhttp://imageshack.us/a/img839/6554/77867198.png&lt;/a&gt;\n &lt;a href=&quot;\nhttp://imageshack.us/a/img803/3450/66474343.png&quot; rel=&quot;nofollow&quot; target=&quot;_NEW&quot;&gt;\nhttp://imageshack.us/a/img803/3450/66474343.png&lt;/a&gt;\n &lt;a href=&quot;\nhttp://imageshack.us/a/img593/8485/15326290.png&quot; rel=&quot;nofollow&quot; target=&quot;_NEW&quot;&gt;\nhttp://imageshack.us/a/img593/8485/15326290.png&lt;/a&gt;\n &lt;a href=&quot;\nhttp://imageshack.us/a/img545/8536/95209000.png&quot; rel=&quot;nofollow&quot; target=&quot;_NEW&quot;&gt;\nhttp://imageshack.us/a/img545/8536/95209000.png&lt;/a&gt;\n &lt;a href=&quot;\nhttp://imageshack.us/a/img802/1248/57016401.png&quot; rel=&quot;nofollow&quot; target=&quot;_NEW&quot;&gt;\nhttp://imageshack.us/a/img802/1248/57016401.png&lt;/a&gt;\n &lt;a href=&quot;\nhttp://imageshack.us/a/img37/6954/58427287.png&quot; rel=&quot;nofollow&quot; target=&quot;_NEW&quot;&gt;\nhttp://imageshack.us/a/img37/6954/58427287.png&lt;/a&gt;\n &lt;a href=&quot;\nhttp://imageshack.us/a/img259/4818/87303167.png&quot; rel=&quot;nofollow&quot; target=&quot;_NEW&quot;&gt;\nhttp://imageshack.us/a/img259/4818/87303167.png&lt;/a&gt;\n &lt;a href=&quot;\nhttp://imageshack.us/a/img24/2994/88204277.png&quot; rel=&quot;nofollow&quot; target=&quot;_NEW&quot;&gt;\nhttp://imageshack.us/a/img24/2994/88204277.png&lt;/a&gt;\n &lt;a href=&quot;\nhttp://imageshack.us/a/img803/9017/43152044.png&quot; rel=&quot;nofollow&quot; target=&quot;_NEW&quot;&gt;\nhttp://imageshack.us/a/img803/9017/43152044.png&lt;/a&gt;\n &lt;a href=&quot;\nhttp://imageshack.us/a/img502/7546/53184831.png&quot; rel=&quot;nofollow&quot; target=&quot;_NEW&quot;&gt;\nhttp://imageshack.us/a/img502/7546/53184831.png&lt;/a&gt;\n &lt;a href=&quot;\nhttp://imageshack.us/a/img543/1618/41312908.png&quot; rel=&quot;nofollow&quot; target=&quot;_NEW&quot;&gt;\nhttp://imageshack.us/a/img543/1618/41312908.png&lt;/a&gt;\n &lt;a href=&quot;\nhttp://imageshack.us/a/img705/4255/32651290.png&quot; rel=&quot;nofollow&quot; target=&quot;_NEW&quot;&gt;\nhttp://imageshack.us/a/img705/4255/32651290.png&lt;/a&gt;","torrent":{"xt":"urn:btih:63eb80ca859b34c5a2b0dc975f50ac065ff1818e","amp;dn":"Saadi+Love+Story+2013+720p+HDRip+x264+%5B5.1+Ch%5D+ESubs+Punjabi+By+","amp;tr":["udp%3A%2F%2Ftracker.openbittorrent.com%3A80","udp%3A%2F%2Fopen.demonii.com%3A1337","udp%3A%2F%2Ftracker.coppersurfer.tk%3A6969","udp%3A%2F%2Fexodus.desync.com%3A6969"],"infoHash":"63eb80ca859b34c5a2b0dc975f50ac065ff1818e","infoHashBuffer":{"type":"Buffer","data":[99,235,128,202,133,155,52,197,162,176,220,151,95,80,172,6,95,241,129,142]},"announce":[],"urlList":[]}}